<?xml version="1.0" encoding="UTF-8"?>
<svg id="Vrstva_1" data-name="Vrstva 1" xmlns="http://www.w3.org/2000/svg" viewBox="0 0 3840 2160">
  <defs>
    <style>
      .cls-1, .cls-2 {
        fill: #20201f;
      }

      .cls-3 {
        fill: #573b1c;
      }

      .cls-3, .cls-2, .cls-4, .cls-5 {
        fill-rule: evenodd;
      }

      .cls-4 {
        fill: #b16724;
      }

      .cls-5 {
        fill: #80623e;
      }
    </style>
  </defs>
  <g>
    <path class="cls-4" d="M2594.83,314.66c-.85,.12-6.05,5.4-6.86,6.49-1.16,1.56-3.94,5.68-5.45,6.68-1.58,1.05-2.58,3.18-4.67,3.37-.01,0,.05,.45,.04,.52-.3,1.49-.84,2.78-1.5,4.14-.73,1.48-4.24,3.2-.91-.89,1.12-1.38,1.05-4.43,2.59-5.9,.19,.02,3.96-3.2,4.3-3.64,1.5-1.94,2.87-3.6,4.75-5.17,1.13-.95,1.34-2.01,3.26-3.3,1.22-.81,1.01-1.4,2.34-2.06,.8-.39,1.31-.84,2.13-.24Z"/>
    <g>
      <path class="cls-1" d="M2592.71,314.89c-1.33,.66-1.12,1.25-2.34,2.06-1.92,1.28-2.13,2.35-3.26,3.3-1.88,1.58-3.25,3.24-4.75,5.17-.34,.44-4.11,3.66-4.3,3.64-1.54,1.48-1.46,4.52-2.59,5.9-3.32,4.1,.19,2.37,.91,.89,.66-1.35,1.21-2.65,1.5-4.14,.02-.07-.05-.52-.04-.52,2.09-.19,3.09-2.32,4.67-3.37,1.51-1,4.3-5.12,5.45-6.68,.81-1.09,6.01-6.37,6.86-6.49-.82-.6-1.33-.15-2.13,.24Z"/>
      <path class="cls-1" d="M2569.66,286.15c-.59-.08-1.27-.16-1.99-.2-.31-.02-.62-.03-.94-.03-.21,0-.42,0-.64,.01-1.69,.08-3.37,.51-4.35,1.75-.25,.31-.45,.67-.59,1.09-.24,.69-1.1,2.54-2.17,4.73-.19,.4-.39,.81-.6,1.22-.2,.42-.41,.84-.62,1.26-.53,1.06-1.07,2.12-1.58,3.11-.92,1.78-1.75,3.34-2.27,4.21-.17,.29-.31,.5-.4,.63-.92,1.18-1.21,1.96-1.38,2.57-.32,1.16-.17,1.67-2.99,3.03-1.22,.59-1.73,1.42-2.14,1.91-.14,.16-.26,.28-.4,.34-.14,.06-.27,.15-.38,.24-.68,.59-.89,1.68-.55,1.72,.06,0,.13-.02,.21-.08,2.25-1.56,3.07-3.72,6.78-5.29,.19-.08,.45-.34,.76-.73,.08-.1,.16-.21,.24-.32,.17-.23,.35-.49,.53-.78,.38-.57,.79-1.25,1.21-1.99,2.25-3.89,4.98-9.51,5.47-10.84,.12-.33,.23-.63,.32-.91,.68-1.98,.82-2.88,1.22-3.22,.17-.15,.39-.19,.71-.18,.54,.03,1.38,.22,2.81,.4,.11,.01,.21,.02,.29,.02,.08,0,.15,0,.21-.02,.3-.06,.35-.23,.47-.23,.02,0,.05,0,.08,.02h0c.05-.07,.15-.17,.27-.3,.06-.06,.13-.13,.21-.21,.99-.98,2.98-2.81,2.17-2.92Z"/>
      <path class="cls-1" d="M2574.74,274.49c.72-.41,1.41-.81,2.04-1.16,.63-.35,1.19-.66,1.65-.9,.57-.3,.98-.49,1.14-.51,.03,0,.05,0,.07,0,.75,.55,1.16,2,1.64,3.56,.04,.14,.09,.28,.13,.43,.09,.29,.18,.57,.28,.86,.15,.43,.31,.85,.49,1.24,.12,.26,.25,.52,.39,.76,.07,.12,.14,.23,.22,.35,.61,.89,1.42,1.5,2.58,1.52,.58,.01,1.25-.12,2.02-.44,.03-.01,.12-.02,.24-.01,.18,0,.42,.02,.62,.04,.07,0,.13,.02,.18,.03,.11,.02,.18,.04,.18,.06h0s0,0,0,0c-.41-1.36-2.3-4.1-3.99-6.14-.77-.93-1.49-1.71-2.01-2.16-1.22-1.04-1.51-1.89-2.24-2.02-.08-.01-.17-.02-.26-.01s-.19,.02-.3,.05c-.33,.08-.73,.25-1.27,.54-.36,.19-.77,.44-1.26,.74-.33,.2-.66,.38-1,.56-.17,.09-.34,.18-.5,.26-.34,.18-.67,.36-1.01,.57-.5,.31-.99,.67-1.47,1.15,0,0-.02,.01-.05,.03-.06,.04-.19,.12-.35,.22-.66,.41-1.98,1.24-3.02,1.96-.39,.27-.73,.52-.99,.73-.08,.07-.16,.13-.22,.19s-.11,.11-.15,.15c-.19,.23-1.74,.8-2.39,1.17-.07,.04-.13,.08-.18,.12-.19,.14-.15,.24,.31,.24,.23,0,.57-.02,1.04-.08,.45-.05,3.79-2,6.88-3.78,.18-.1,.36-.21,.54-.31Z"/>
      <path class="cls-1" d="M2611.72,295.91c-.21-.17-.47-.35-.77-.54-.74-.47-1.68-.98-2.46-1.38-.77-.4-1.37-.69-1.43-.73-.86-.6-1.53-.95-2.11-1.21-.96-.44-1.66-.62-2.59-1.31t0,0s0,0,0,0c.67,.49,.42,1.4,.07,2.18-.27,.59,.05,1.13,.68,1.64,.31,.25,.71,.5,1.15,.74s.92,.47,1.42,.71c.25,.12,.5,.23,.75,.35,1.75,.8,3.46,1.59,3.69,2.47,.56,2.08,.24,4.65-.56,6.93-.16,.46-.34,.9-.53,1.33-.39,.86-.84,1.64-1.33,2.31,.8,.89,2.28,2.45,2.64,3.78,.05,.19,.08,.38,.08,.55,0,.5,.16,.86,.37,1.09,.07,.08,.14,.14,.22,.18,.15,.09,.3,.12,.41,.1,.06-.01,.11-.04,.15-.08,.04-.04,.06-.1,.07-.16,.15-1.38-.38-2.25-.97-2.85-.15-.15-.3-.28-.45-.4-.15-.12-.29-.23-.43-.32-.26-.19-.47-.35-.55-.5-.05-.1-.06-.31-.03-.62,.03-.3,.08-.69,.17-1.13,.08-.45,.19-.95,.31-1.48,.18-.8,.4-1.66,.62-2.48,.36-1.38,.73-2.65,.96-3.38,.09-.29,.16-.49,.2-.58,.94-2.22,.67-3.08,.38-3.51-.15-.22-.3-.32-.3-.44,0-.06,.03-.12,.12-.2s.23-.18,.45-.3c.06-.03,.09-.07,.09-.12,.02-.15-.16-.36-.47-.61Z"/>
      <path class="cls-1" d="M2621.02,273.6c-.69-.43-1.41-.62-2.09-.63-.17,0-.34,.01-.5,.03-.82,.11-1.56,.52-2.11,1.15-.66,.76-1.03,1.85-.94,3.16,.03,.35-.19,1.42-.35,2.52-.04,.28-.08,.55-.11,.82-.09,.81-.1,1.55,.07,1.93,0,.01-.02,.02-.07,0-.6-.09-5.01-1.61-6.72-1.8-.14-.02-.27-.02-.37-.02-.2,0-.31,.06-.31,.17,.02,.33,.02,.62,0,.86-.02,.24-.05,.45-.1,.62-.09,.34-.22,.56-.32,.72-.13,.2-.22,.31-.15,.47,.04,.09,.15,.2,.34,.36h0c.22-.03,.43-.04,.63-.04,2.07,.05,3.71,1.7,5.57,1.57,.93-.07,1.91-.59,3.03-1.97,1.18-1.47,.26-9.62,2.61-9.72,.34-.01,.74,.14,1.22,.49,.86,.64,1.98,1.13,2.58,1.24,.17,.03,.3,.03,.37,0,.24-.12-.27-.69-2.31-1.94Z"/>
      <path class="cls-1" d="M2592.72,272.76s0,0,0,0c0-.02,0-.03,.01-.04,.04-.09,.06-.16,.07-.22,0-.02,0-.03,0-.05,0-.04,.01-.07,0-.09,0,0,0-.01,0-.02,0-.01-.01-.02-.03-.01-.06,0-.16,.21-.08,.43h0s0,0,0,0Z"/>
      <path class="cls-1" d="M2587.08,268.36c.36,1.06-.43,2.18-.59,3.48-.02,.16-.03,.33-.03,.5,.01,.51,.15,1.04,.49,1.62,.35,.57,.92,1.18,1.79,1.83,.18,.14,.35,.26,.5,.38,.76,.58,1.14,.88,1.39,.89,.05,0,.09,0,.14-.03,.04-.02,.08-.06,.12-.11,.07-.1,.14-.24,.22-.44,.23-.6,.56-1.67,1.4-3.28,.08-.16,.14-.29,.19-.4,.01,.01,.02,.03,.03,.04,.01,.02,.02,.03,.03,.04,0,0,0,0,0,0,0,0,0,0,0,0-.03-.04-.04-.08-.05-.12h0s0,0,0,0c0,0,0,.02-.01,.02,0,0,0,0,0,0-.75-.98-1.52-1.44-2.31-2.32,0,0,0,0,0,0-.07-.08-.14-.16-.21-.25-.01-.02-.03-.03-.04-.05-.06-.08-.13-.16-.19-.25-.02-.03-.04-.05-.06-.07-.06-.08-.11-.17-.17-.25-.02-.04-.05-.07-.07-.11-.05-.08-.11-.18-.16-.27-.03-.05-.05-.09-.08-.14-.06-.1-.12-.21-.18-.32-.02-.05-.05-.09-.07-.13-.08-.16-.17-.33-.25-.51-.21-.45-.66-.63-.88-1.15-.11-.26-.16-.62-.09-1.14,.07-.52,.25-1.21,.61-2.15,.09-.24,.21-.83,.33-1.64,.12-.8,.25-1.82,.35-2.93,.04-.37,.07-.75,.1-1.13,.02-.19,.03-.39,.04-.58,.03-.39,.05-.78,.07-1.17,.02-.39,.04-.78,.05-1.16,.07-2.48-.06-4.68-.63-5.31-.29-.32-.47-.94-.72-1.21-.05-.05-.1-.09-.16-.11-.11-.04-.25,0-.41,.16-.35,.35,.87,3.32,1,4.11,.03,.17,0,.46-.06,.84-.1,.63-.29,1.51-.49,2.46-.31,1.51-.63,3.19-.57,4.29,.04,.7-.39,1.76-.74,2.95-.45,1.53-.78,3.27,.16,4.72,.08,.13,.15,.26,.19,.39Z"/>
      <path class="cls-1" d="M2602.42,265.34c.05-.3-.13-.76-.42-1.32-.23-.45-.52-.96-.8-1.52-.28-.56-.55-1.17-.74-1.79-.14-.47-.24-.95-.26-1.43-.06-1.3-.83-1.9-1.63-2.93-.18-.23-.35-.48-.53-.76-.43-.71-.81-1.62-1.04-2.94-.14-.81-.27-1.4-.39-1.82-.12-.42-.23-.67-.33-.8-.06-.08-.12-.11-.16-.09-.13,.05-.16,.49-.02,.98,.04,.16,.11,.33,.19,.49,.17,.32,.28,.6,.35,.85,.26,.87,.07,1.37,.16,2.02,.09,.66,.45,1.48,1.83,3,1.91,2.11,.41,4.59,2.63,6.55,.05,.05,.64,1.78,.64,3.03,0,.21-.02,.4-.05,.58-.04,.17-.1,.32-.18,.44-.03,.04,.03,.34,.06,.5,0,.05,.01,.09,.01,.09,.57-.56,.67-.92,.65-1.36-.01-.43-.13-.94,.01-1.77Z"/>
      <path class="cls-1" d="M2633.35,268.94c-1.11-.04-2.67,.25-4.8,1.29-1.14,.56-3.3,.64-5.49,.66-.24,0-.49,0-.73,0-1.46,0-2.88,0-3.97,.11-3.06,.3-3.6,.54-6.46,1.09-.05,0-.45,.04-1.01,.08-.24,.02-.51,.04-.8,.07-.19,.02-.39,.04-.59,.06-.4,.04-.82,.09-1.21,.14-.59,.08-1.12,.17-1.5,.28-.62,.18-.79,.39,.02,.65,.41,.13,.74,.21,1.01,.25,.14,.02,.26,.03,.37,.03,.78,.02,1-.35,1.48-.64,.28-.17,.65-.31,1.26-.33,.31-.01,.67,0,1.12,.06,.4,.05,.79,.06,1.16,.06,1.11-.03,2.09-.28,3.02-.52,.93-.25,1.81-.49,2.75-.5,.31,0,.62,.02,.95,.07,.18,.03,.43,.04,.73,.04,1.49,0,4.26-.35,6.26-.65,.4-.06,.77-.12,1.09-.17,.32-.05,.59-.1,.8-.14,.58-.11,1.11-.25,1.63-.38,.77-.2,1.5-.39,2.3-.51,.53-.08,1.1-.12,1.73-.11,.32,0,.65,.03,1,.06h0c.27,.03-.28-.97-2.12-1.05Z"/>
    </g>
    <path class="cls-5" d="M2563.65,317.57c-1.03-1.38-4.65-3.82-2.87-6.63,.02-.03-2.49-2.52-1.17-5.64,.54-1.29-.49-1.41,.28-4.24,.15-.56-.16-.86,.4-2.34,.38-3.04,1.88-4.57,2.92-5.19,.23-.89,1.77-3.76,2.75-3.74,.48,0,2.21-4.64,5.1-3.79,2.79-2.56,4.34-5.02,8.66-5.19,0,0,.79-1.19,1.1-1.39,2.73-1.73,2.43-1.95,5.62-.65,2.97,1.2,1.64-1.24,7.42,3.03,.95,.7,7.87,5.44,7.92,5.8,1.52,1.59,3.37,6.65,1.16,8.18-.3,.2,.37-.1,.28,.9-.21,2.43,.74,5.6-2.27,6.72-.12,.35,1.68,2.83-1.83,5.82-.52,.7-1.08,.64-1.28,.87,.25,1.37-2.08,4.31-4.04,4.37-.99,2.22-2.64,3.07-4.08,2.93-.44,.67-2.94,3.09-5.35,2.01-1.39,2.45-5.67,2.44-6.53,1.08-2.27,2.57-5.98,1.94-8.92,1.06-.99,.94-2.56-.13-3.4-.75-1.23-.91-1.56-1.67-1.88-3.09v-.11Z"/>
    <g>
      <path class="cls-3" d="M2560.36,312.7v-.12s-.04-.04-.06-.06c0,.82,.37,1.59,.88,2.3-.41-.58-.62-1.22-.82-2.12Z"/>
      <path class="cls-3" d="M2602.32,288.28c-.14,.65-.44,1.19-.96,1.55-.31,.21,.39-.1,.3,.94-.22,2.54,.77,5.84-2.36,7.01-.13,.36,1.76,2.96-1.91,6.07-.54,.73-1.13,.67-1.34,.91,.26,1.43-2.17,4.49-4.22,4.56-1.03,2.32-2.76,3.2-4.26,3.05-.46,.7-3.07,3.23-5.58,2.09-1.45,2.56-5.92,2.55-6.82,1.12-2.37,2.68-6.24,2.03-9.31,1.1-1.03,.98-2.67-.14-3.55-.78-.44-.33-.77-.64-1.03-.96,.8,1.06,1.87,1.96,2.36,2.61v.11c.32,1.42,.65,2.18,1.89,3.09,.84,.62,2.41,1.69,3.4,.75,2.94,.89,6.65,1.51,8.92-1.06,.86,1.37,5.14,1.37,6.53-1.08,2.4,1.09,4.91-1.34,5.35-2.01,1.44,.14,3.09-.71,4.08-2.93,1.96-.06,4.3-3,4.04-4.37,.2-.23,.76-.17,1.28-.87,3.51-2.98,1.71-5.47,1.83-5.82,3.01-1.12,2.05-4.29,2.27-6.72,.09-1-.58-.7-.28-.9,1.96-1.35,.74-5.47-.63-7.5Z"/>
    </g>
    <path class="cls-3" d="M2605.35,278.08c1.94-1.55,5.46,1.91,1.97,5.91-1.55,1.78-7.8,4.4-10.43,3.76-2.82-.69-4.8,.88-4.27-2.43,.28-1.74-5.93-6.29,.28-14.69,2.22-3.01,6.56-1.23,4.69,.87-.62,.69,.28,1.86,.83,.74,.6-1.24-1.84-3.1,.93-3.4,1.01-.11,1.08,1.5,1.69-1.21,.76-3.36,2.41-1.51,1.71-.52-.43,.61-2.01,1.68-.15,2.67,.97,.52,1.1-4.17,4.35,.34,1.29,1.8-2.21,.66,0,2.53,1.46,1.24-2.48,.13,.45,2.16,.33,.23,1.67,2.83-1.29,2.05-.25-.07-2.45,1.31-.75,1.24Z"/>
    <path class="cls-2" d="M2608.09,276.67c-.5,.68-1.41,.86-2.03,.4-.62-.46-.72-1.38-.21-2.05,.5-.68,1.41-.86,2.03-.4,.62,.46,.72,1.38,.22,2.05Z"/>
    <path class="cls-2" d="M2600.26,270.56c-.5,.68-1.41,.85-2.03,.4-.62-.46-.72-1.38-.22-2.05,.5-.68,1.41-.86,2.03-.4,.62,.46,.72,1.38,.22,2.05Z"/>
  </g>
  <g>
    <path class="cls-4" d="M2664.7,1563.54c-.67-.54-8.08-.72-9.43-.56-1.93,.23-6.84,1.01-8.6,.6-1.85-.43-4.08,.3-5.65-1.1-.01,0-.29,.35-.35,.38-1.29,.8-2.61,1.29-4.05,1.73-1.58,.48-5.24-.9,.02-1.28,1.78-.13,3.94-2.27,6.08-2.15,.11,.15,5.04,.7,5.59,.65,2.44-.23,4.59-.37,7.02-.08,1.46,.18,2.38-.4,4.64,.12,1.43,.33,1.71-.23,3.1,.3,.83,.31,1.51,.38,1.63,1.39Z"/>
    <g>
      <path class="cls-1" d="M2663.07,1562.15c-1.39-.52-1.68,.04-3.1-.3-2.25-.52-3.17,.05-4.64-.12-2.44-.29-4.58-.15-7.02,.08-.56,.05-5.48-.5-5.59-.65-2.13-.11-4.3,2.03-6.08,2.15-5.26,.38-1.6,1.76-.02,1.28,1.44-.44,2.76-.94,4.05-1.73,.06-.03,.34-.39,.35-.38,1.57,1.39,3.8,.66,5.65,1.1,1.76,.42,6.67-.37,8.6-.6,1.35-.16,8.76,.03,9.43,.56-.12-1.01-.8-1.07-1.63-1.39Z"/>
      <path class="cls-1" d="M2668.26,1525.67c-.34-.48-.76-1.04-1.22-1.59-.2-.24-.4-.47-.62-.7-.14-.15-.29-.31-.45-.45-1.22-1.18-2.68-2.11-4.25-1.97-.39,.03-.79,.13-1.2,.31-.67,.29-2.61,.93-4.93,1.65-.42,.13-.86,.26-1.3,.4-.44,.13-.89,.27-1.34,.41-1.13,.34-2.27,.67-3.35,.98-1.93,.55-3.63,1.01-4.62,1.23-.33,.07-.58,.12-.73,.13-1.49,.14-2.26,.46-2.82,.75-1.06,.56-1.33,1.02-4.26-.11-1.27-.49-2.22-.29-2.85-.25-.21,.01-.38,0-.52-.05-.14-.06-.29-.09-.44-.11-.89-.09-1.83,.5-1.63,.77,.03,.05,.1,.08,.2,.1,2.68,.57,4.81-.31,8.5,1.32,.19,.08,.56,.1,1.05,.05,.12-.01,.26-.03,.4-.04,.28-.04,.59-.08,.93-.14,.67-.12,1.45-.28,2.28-.48,4.38-1.02,10.34-2.88,11.65-3.43,.32-.14,.62-.27,.89-.39,1.9-.86,2.66-1.37,3.19-1.31,.22,.02,.41,.15,.62,.4,.35,.41,.78,1.16,1.63,2.32,.07,.09,.13,.16,.19,.22,.06,.06,.11,.11,.16,.14,.25,.18,.41,.09,.49,.18,.02,.02,.03,.04,.04,.08h0c.08-.01,.22-.01,.4,0,.09,0,.19,0,.3,0,1.39,.05,4.09,.25,3.62-.41Z"/>
      <path class="cls-1" d="M2680.24,1521.4c.79,.24,1.55,.48,2.24,.69,.69,.22,1.3,.42,1.78,.59,.61,.21,1.02,.38,1.15,.48,.03,.02,.04,.04,.04,.05,.11,.92-.66,2.22-1.48,3.64-.07,.13-.15,.26-.22,.39-.15,.26-.29,.53-.43,.79-.21,.4-.41,.8-.57,1.2-.11,.27-.21,.54-.28,.8-.04,.13-.07,.27-.1,.4-.23,1.05-.12,2.06,.66,2.92,.39,.43,.94,.83,1.7,1.17,.03,.01,.09,.07,.17,.16,.12,.13,.27,.32,.39,.48,.04,.05,.08,.1,.11,.15,.06,.09,.1,.16,.09,.17h0s0,0,0,0c.71-1.23,1.42-4.48,1.75-7.11,.15-1.19,.23-2.26,.2-2.95-.08-1.6,.35-2.4-.06-3.01-.05-.07-.1-.13-.17-.2s-.15-.13-.24-.19c-.28-.18-.68-.36-1.26-.56-.38-.13-.85-.26-1.4-.41-.37-.1-.73-.22-1.09-.34-.18-.06-.36-.12-.54-.19-.36-.12-.72-.24-1.1-.35-.57-.15-1.17-.26-1.84-.28,0,0-.02,0-.06-.01-.07-.02-.21-.06-.4-.11-.75-.2-2.26-.6-3.49-.86-.46-.1-.88-.18-1.21-.22-.11-.01-.21-.03-.29-.03s-.16,0-.21,0c-.3,.02-1.77-.72-2.49-.94-.08-.02-.15-.04-.21-.05-.23-.04-.28,.05,.04,.39,.16,.17,.41,.4,.77,.71,.34,.29,4.05,1.39,7.46,2.43,.2,.06,.4,.12,.6,.18Z"/>
      <path class="cls-1" d="M2689.92,1563.02c-.02-.26-.07-.58-.13-.93-.16-.86-.44-1.9-.68-2.73-.24-.84-.43-1.48-.44-1.55-.15-1.04-.35-1.77-.56-2.37-.34-1-.68-1.64-.82-2.79t0,0s0,0,0,0c.1,.82-.73,1.27-1.54,1.54-.61,.21-.79,.81-.73,1.61,.03,.4,.12,.86,.25,1.34s.29,1,.46,1.52c.09,.26,.17,.52,.26,.78,.61,1.83,1.21,3.61,.73,4.38-1.13,1.83-3.23,3.35-5.44,4.34-.44,.2-.89,.37-1.33,.52-.89,.3-1.77,.51-2.59,.61-.1,1.2-.23,3.34-.95,4.51-.1,.17-.22,.32-.35,.44-.37,.34-.52,.71-.54,1.01,0,.1,0,.2,.02,.28,.04,.17,.11,.3,.21,.37,.05,.03,.1,.05,.16,.05,.06,0,.11-.02,.17-.06,1.11-.84,1.39-1.81,1.41-2.66,0-.21,0-.41-.02-.61-.02-.19-.04-.37-.06-.53-.04-.32-.07-.58,0-.74,.04-.1,.19-.26,.43-.45,.24-.19,.56-.41,.94-.65,.38-.24,.82-.51,1.29-.78,.71-.41,1.48-.84,2.23-1.25,1.25-.68,2.44-1.28,3.12-1.62,.27-.13,.47-.22,.56-.25,2.26-.83,2.7-1.61,2.82-2.12,.06-.25,.03-.44,.12-.52,.04-.04,.11-.06,.23-.05s.29,.05,.53,.12c.06,.02,.11,.01,.15-.02,.12-.08,.15-.37,.12-.76Z"/>
      <path class="cls-1" d="M2712.55,1554.55c-.16-.8-.51-1.45-.97-1.95-.12-.12-.24-.24-.37-.34-.65-.52-1.45-.78-2.28-.75-1,.04-2.06,.51-2.94,1.48-.24,.26-1.16,.83-2.08,1.47-.23,.16-.46,.32-.67,.49-.65,.49-1.2,.98-1.36,1.38,0,.01-.02,0-.05-.04-.34-.51-2.25-4.76-3.28-6.14-.09-.11-.17-.21-.24-.28-.14-.14-.26-.19-.33-.11-.23,.25-.43,.44-.62,.59-.19,.15-.36,.27-.52,.35-.31,.17-.56,.22-.75,.26-.23,.04-.38,.05-.44,.21-.04,.1-.05,.25-.03,.49h0c.17,.14,.32,.28,.46,.44,1.37,1.54,1.3,3.87,2.67,5.13,.69,.63,1.74,.99,3.51,.86,1.88-.15,7.2-6.39,8.87-4.75,.24,.23,.41,.63,.48,1.23,.13,1.06,.53,2.22,.86,2.73,.09,.15,.18,.24,.25,.27,.25,.09,.32-.67-.16-3.01Z"/>
      <path class="cls-1" d="M2693.8,1533.33s0,0,0,0c.02,0,.02-.01,.04-.02,.09-.03,.16-.07,.21-.09,.02,0,.03-.02,.04-.03,.04-.02,.06-.04,.07-.06,0,0,0-.01,.01-.01,0-.01,0-.02,0-.03-.05-.04-.26,.03-.37,.24h0s0,0,0,0Z"/>
      <path class="cls-1" d="M2693.15,1526.2c-.52,.99-1.89,1.17-2.94,1.95-.13,.1-.26,.2-.38,.32-.36,.36-.66,.82-.84,1.47-.18,.65-.23,1.47-.1,2.56,.03,.23,.05,.44,.07,.63,.1,.95,.14,1.44,.31,1.62,.03,.04,.07,.06,.12,.08,.05,.01,.1,.02,.16,.01,.12-.01,.27-.06,.47-.15,.6-.24,1.6-.74,3.34-1.22,.17-.05,.31-.09,.42-.13,0,.02,0,.04,0,.05,0,.02,0,.04,0,.06,0,0,0,0,0,0,0,0,0,0,0,0,0-.05,.03-.08,.05-.12h0s0,0,0,0c0,0-.02,0-.02,0,0,0,0,0-.01,0,.2-1.22,.01-2.09,.11-3.27,0,0,0,0,0,0,0-.1,.02-.21,.04-.32,0-.02,0-.04,0-.06,.01-.1,.03-.2,.05-.31,0-.03,0-.06,.02-.09,.02-.1,.04-.2,.07-.3,.01-.04,.02-.08,.03-.13,.02-.1,.05-.2,.08-.3,.01-.05,.03-.1,.04-.15,.03-.11,.07-.23,.12-.35,.02-.05,.03-.09,.05-.14,.06-.17,.13-.35,.2-.53,.19-.46,0-.91,.24-1.43,.12-.26,.34-.54,.77-.85,.43-.31,1.05-.65,1.98-1.02,.24-.1,.75-.41,1.42-.88,.67-.46,1.5-1.07,2.38-1.75,.29-.23,.59-.46,.9-.7,.15-.12,.3-.24,.45-.37,.3-.25,.6-.5,.9-.75,.3-.25,.59-.51,.88-.76,1.86-1.64,3.37-3.25,3.45-4.09,.04-.43,.37-.99,.39-1.35,0-.07,0-.14-.03-.19-.05-.11-.17-.18-.4-.19-.5-.02-1.83,2.9-2.31,3.54-.1,.13-.33,.32-.65,.53-.53,.36-1.3,.82-2.12,1.33-1.31,.81-2.75,1.72-3.52,2.52-.49,.5-1.55,.92-2.66,1.48-1.43,.72-2.92,1.67-3.33,3.34-.04,.15-.09,.29-.16,.41Z"/>
      <path class="cls-1" d="M2705.85,1535.32c.26-.17,.46-.61,.68-1.2,.17-.47,.35-1.04,.57-1.62,.22-.59,.47-1.2,.8-1.76,.25-.42,.53-.82,.87-1.17,.91-.93,.82-1.91,1.03-3.19,.05-.29,.11-.59,.2-.9,.22-.8,.63-1.7,1.44-2.77,.49-.65,.83-1.15,1.06-1.53,.22-.38,.33-.63,.36-.78,.02-.1,0-.16-.04-.18-.12-.06-.47,.22-.73,.65-.09,.14-.17,.3-.23,.47-.12,.34-.25,.62-.38,.84-.46,.79-.95,.99-1.37,1.5-.42,.51-.77,1.34-.94,3.39-.23,2.84-3.06,3.44-2.97,6.4,0,.07-.86,1.68-1.78,2.54-.15,.14-.31,.26-.46,.36-.15,.09-.3,.15-.44,.17-.04,0-.23,.26-.33,.39-.03,.04-.06,.07-.06,.07,.8,.03,1.13-.15,1.44-.45,.31-.31,.59-.74,1.3-1.2Z"/>
      <path class="cls-1" d="M2724.39,1560.34c-.72-.84-2.01-1.78-4.23-2.62-1.19-.45-2.73-1.96-4.24-3.55-.17-.18-.34-.35-.5-.53-1-1.06-1.97-2.1-2.8-2.82-2.31-2.02-2.86-2.26-5.21-3.97-.04-.03-.33-.3-.75-.68-.18-.16-.38-.34-.6-.53-.14-.13-.29-.26-.45-.39-.3-.27-.62-.53-.93-.78-.46-.37-.89-.7-1.23-.9-.56-.33-.83-.31-.46,.46,.19,.38,.36,.68,.51,.91,.08,.11,.16,.21,.23,.3,.52,.59,.94,.49,1.48,.64,.31,.09,.67,.26,1.1,.69,.22,.21,.46,.49,.73,.86,.24,.33,.49,.62,.75,.88,.78,.79,1.63,1.33,2.45,1.84,.82,.51,1.6,.99,2.24,1.66,.22,.22,.42,.47,.6,.74,.1,.15,.26,.34,.47,.56,1.02,1.09,3.17,2.87,4.76,4.12,.32,.25,.61,.48,.87,.67,.26,.2,.48,.36,.65,.49,.48,.35,.94,.64,1.39,.93,.67,.43,1.31,.83,1.94,1.33,.42,.34,.84,.72,1.26,1.19,.21,.23,.42,.49,.64,.77h0c.17,.22,.52-.87-.69-2.27Z"/>
    </g>
    <path class="cls-5" d="M2641.23,1542.79c.3-1.7-.39-6,2.87-6.63,.04,0,.13-3.53,3.31-4.71,1.31-.49,.69-1.32,3.29-2.7,.51-.27,.52-.71,1.98-1.31,2.47-1.8,4.62-1.76,5.78-1.42,.8-.44,3.96-1.28,4.61-.56,.32,.35,4.9-1.56,6.25,1.13,3.77,.28,6.64-.27,9.71,2.77,0,0,1.4-.24,1.77-.14,3.13,.81,3.08,.44,4.32,3.66,1.15,2.98,2.03,.34,2.87,7.48,.14,1.18,1.41,9.46,1.19,9.74-.12,2.2-2.55,7.01-5.18,6.44-.35-.08,.32,.2-.46,.83-1.92,1.51-3.58,4.37-6.45,2.95-.34,.15-.92,3.17-5.49,2.65-.87,.1-1.21-.35-1.51-.34-.83,1.12-4.56,1.43-5.95,.04-2.29,.8-4.04,.17-4.93-.97-.79,.14-4.27-.03-5.12-2.53-2.73,.66-5.66-2.46-5.25-4.03-3.43,.1-5.51-3.03-6.87-5.78-1.36-.08-1.66-1.96-1.78-2.99-.18-1.52,.15-2.28,.97-3.49l.08-.08Z"/>
    <g>
      <path class="cls-3" d="M2642.53,1537.05l.08-.09s0-.05,.01-.08c-.6,.56-.91,1.36-1.07,2.21,.14-.7,.46-1.29,.98-2.05Z"/>
      <path class="cls-3" d="M2689.05,1550.95c-.57,.34-1.17,.5-1.79,.36-.37-.08,.34,.21-.48,.86-2,1.57-3.73,4.56-6.73,3.07-.35,.16-.96,3.3-5.73,2.76-.91,.11-1.26-.37-1.58-.35-.86,1.17-4.76,1.49-6.21,.04-2.39,.84-4.22,.18-5.14-1.02-.82,.15-4.46-.03-5.34-2.64-2.85,.69-5.91-2.57-5.48-4.2-3.58,.11-5.75-3.16-7.18-6.03-1.42-.08-1.73-2.04-1.86-3.12-.06-.55-.06-1,0-1.41-.22,1.31-.15,2.7-.29,3.51l-.08,.08c-.82,1.2-1.15,1.96-.97,3.49,.12,1.03,.41,2.91,1.78,2.99,1.37,2.75,3.44,5.88,6.87,5.78-.41,1.56,2.52,4.69,5.25,4.03,.85,2.49,4.33,2.67,5.12,2.53,.88,1.14,2.63,1.77,4.93,.97,1.39,1.39,5.12,1.08,5.95-.04,.3-.01,.64,.44,1.51,.34,4.58,.52,5.16-2.5,5.49-2.65,2.88,1.42,4.53-1.44,6.45-2.95,.79-.62,.11-.91,.46-.83,2.33,.5,4.49-3.2,5.04-5.59Z"/>
    </g>
    <path class="cls-3" d="M2698.56,1546.18c2.46,.36,2.34,5.29-2.96,5.48-2.36,.08-8.54-2.68-9.88-5.04-1.43-2.53-3.92-2.9-1.15-4.78,1.46-.99,.53-8.63,10.9-9.85,3.72-.44,5.39,3.94,2.57,4.01-.92,.02-1.16,1.48,.03,1.11,1.32-.41,1.01-3.46,3.12-1.65,.77,.66-.36,1.81,2.04,.4,2.97-1.74,2.75,.73,1.55,.89-.74,.1-2.6-.31-2.05,1.72,.29,1.07,3.8-2.05,2.73,3.41-.43,2.18-1.99-1.16-1.84,1.73,.1,1.92-1.79-1.72-1.26,1.81,.06,.4-.92,3.15-2.38,.46-.12-.23-2.63-.89-1.42,.3Z"/>
    <path class="cls-2" d="M2701.46,1547.22c-.84,.1-1.59-.44-1.68-1.21-.09-.76,.52-1.47,1.35-1.56,.84-.1,1.59,.44,1.68,1.2,.09,.76-.51,1.46-1.35,1.56Z"/>
    <path class="cls-2" d="M2700.57,1537.32c-.84,.1-1.59-.44-1.68-1.21-.09-.76,.52-1.46,1.35-1.56,.84-.1,1.59,.44,1.68,1.21,.09,.76-.51,1.46-1.35,1.56Z"/>
  </g>
  <g>
    <path class="cls-4" d="M2568.21,1537.72c-.82-.23-7.72,2.5-8.9,3.17-1.69,.96-5.9,3.61-7.68,3.92-1.87,.32-3.64,1.87-5.63,1.2-.01,0-.13,.44-.18,.49-.87,1.24-1.89,2.21-3.05,3.18-1.26,1.06-5.17,1.22-.48-1.18,1.58-.81,2.74-3.63,4.75-4.36,.16,.09,4.91-1.33,5.4-1.59,2.16-1.17,4.08-2.14,6.43-2.82,1.42-.41,2.04-1.3,4.31-1.7,1.44-.25,1.49-.88,2.97-.94,.89-.04,1.54-.24,2.04,.64Z"/>
    <g>
      <path class="cls-1" d="M2566.16,1537.08c-1.48,.07-1.53,.69-2.97,.94-2.28,.4-2.9,1.29-4.31,1.7-2.36,.68-4.28,1.65-6.43,2.82-.49,.27-5.24,1.69-5.4,1.59-2,.73-3.16,3.55-4.75,4.36-4.69,2.41-.78,2.25,.48,1.18,1.15-.97,2.17-1.94,3.05-3.18,.04-.06,.16-.49,.17-.49,1.99,.67,3.76-.88,5.63-1.2,1.79-.31,6-2.95,7.68-3.92,1.18-.67,8.07-3.41,8.9-3.17-.5-.88-1.15-.68-2.04-.64Z"/>
      <path class="cls-1" d="M2556.66,1501.48c-.51-.31-1.1-.66-1.74-.98-.27-.14-.56-.28-.85-.4-.19-.09-.39-.17-.59-.24-1.58-.61-3.29-.89-4.68-.15-.35,.18-.68,.43-.98,.76-.5,.53-2.04,1.88-3.89,3.45-.34,.29-.69,.58-1.04,.88-.35,.3-.72,.6-1.08,.9-.91,.75-1.83,1.51-2.7,2.21-1.56,1.26-2.95,2.35-3.77,2.94-.27,.2-.49,.34-.62,.41-1.32,.71-1.9,1.3-2.3,1.79-.76,.93-.83,1.46-3.96,1.57-1.36,.05-2.16,.61-2.72,.88-.19,.09-.35,.15-.5,.15-.15,0-.3,.03-.45,.07-.86,.26-1.49,1.18-1.2,1.35,.05,.03,.12,.04,.23,.02,2.69-.52,4.31-2.17,8.34-2.11,.21,0,.55-.13,.99-.36,.11-.06,.23-.12,.35-.2,.25-.14,.51-.31,.8-.5,.57-.37,1.22-.83,1.92-1.33,3.63-2.65,8.39-6.7,9.38-7.72,.24-.25,.46-.49,.67-.71,1.42-1.53,1.91-2.3,2.42-2.46,.22-.07,.43-.02,.72,.12,.48,.24,1.18,.76,2.41,1.5,.1,.06,.18,.1,.26,.13,.08,.03,.14,.05,.2,.07,.3,.06,.41-.07,.52-.03,.02,0,.04,.03,.07,.05h0c.07-.04,.2-.1,.37-.17,.08-.03,.18-.07,.28-.11,1.3-.5,3.86-1.37,3.17-1.79Z"/>
      <path class="cls-1" d="M2566.01,1492.86c.82-.09,1.62-.17,2.33-.24,.72-.07,1.36-.12,1.87-.16,.64-.04,1.09-.05,1.25,0,.03,0,.05,.02,.06,.03,.46,.81,.26,2.3,.07,3.92-.02,.15-.03,.3-.05,.45-.03,.3-.06,.6-.09,.9-.04,.45-.06,.9-.06,1.33,0,.29,.02,.57,.05,.85,.02,.14,.04,.27,.06,.4,.2,1.06,.7,1.94,1.75,2.43,.53,.25,1.19,.39,2.03,.41,.03,0,.11,.03,.22,.08,.16,.08,.38,.19,.55,.29,.06,.03,.11,.07,.16,.1,.09,.06,.15,.11,.15,.12h0s0,0,0,0c.17-1.41-.45-4.68-1.17-7.23-.33-1.16-.67-2.17-.97-2.79-.69-1.44-.62-2.34-1.23-2.75-.07-.04-.14-.08-.23-.12s-.18-.06-.29-.08c-.33-.06-.77-.07-1.38-.02-.4,.03-.88,.09-1.45,.17-.38,.05-.76,.08-1.14,.11-.19,.01-.38,.03-.57,.04-.38,.03-.76,.06-1.15,.11-.58,.08-1.18,.21-1.8,.46,0,0-.02,0-.06,.01-.08,.01-.22,.03-.41,.06-.76,.11-2.32,.34-3.55,.57-.46,.09-.88,.18-1.2,.27-.11,.03-.2,.06-.28,.09s-.15,.05-.2,.08c-.27,.14-1.92,.03-2.66,.11-.08,0-.16,.02-.21,.03-.23,.06-.23,.16,.19,.35,.21,.09,.53,.21,.98,.35,.43,.13,4.27-.3,7.82-.68,.21-.02,.42-.04,.62-.07Z"/>
      <path class="cls-1" d="M2591.21,1527.37c-.12-.24-.29-.51-.49-.8-.49-.73-1.15-1.57-1.69-2.25-.54-.68-.98-1.19-1.01-1.25-.55-.9-1.02-1.49-1.44-1.96-.7-.79-1.27-1.24-1.84-2.24t0,0s0,0,0,0c.41,.72-.18,1.45-.81,2.02-.48,.43-.41,1.05-.04,1.77,.19,.36,.45,.74,.75,1.14s.65,.81,1.01,1.22c.18,.21,.36,.41,.55,.62,1.28,1.44,2.52,2.85,2.38,3.74-.33,2.12-1.66,4.35-3.31,6.12-.33,.35-.67,.69-1.02,1-.7,.63-1.43,1.16-2.15,1.57,.38,1.14,1.1,3.16,.89,4.52-.03,.19-.08,.38-.15,.54-.2,.46-.2,.86-.1,1.15,.03,.1,.08,.18,.13,.25,.1,.14,.22,.23,.34,.26,.06,.01,.11,0,.17-.01,.05-.02,.09-.06,.13-.12,.69-1.21,.56-2.21,.26-3-.08-.2-.16-.38-.25-.55-.09-.17-.18-.33-.26-.47-.16-.28-.29-.51-.3-.68,0-.11,.07-.31,.22-.58,.14-.27,.35-.6,.61-.97,.26-.37,.56-.79,.88-1.23,.49-.66,1.03-1.36,1.56-2.02,.89-1.11,1.74-2.14,2.24-2.71,.2-.23,.34-.39,.41-.45,1.76-1.65,1.85-2.54,1.76-3.06-.05-.26-.14-.42-.1-.53,.02-.06,.08-.1,.19-.14s.29-.07,.54-.1c.07,0,.11-.03,.14-.08,.08-.13,0-.4-.19-.75Z"/>
      <path class="cls-1" d="M2608.72,1510.71c-.46-.67-1.04-1.14-1.66-1.42-.15-.07-.31-.13-.47-.17-.8-.23-1.64-.15-2.4,.21-.91,.43-1.69,1.28-2.13,2.51-.12,.33-.74,1.22-1.33,2.17-.15,.24-.29,.48-.43,.71-.41,.71-.72,1.38-.71,1.8,0,.01-.02,0-.07-.02-.51-.33-3.94-3.5-5.42-4.36-.12-.07-.23-.13-.33-.16-.19-.07-.31-.07-.35,.03-.11,.32-.23,.58-.34,.79-.12,.22-.23,.39-.34,.53-.22,.28-.43,.43-.59,.53-.2,.13-.33,.2-.32,.37,0,.1,.05,.25,.17,.46h0c.21,.06,.41,.13,.59,.22,1.87,.88,2.71,3.06,4.47,3.68,.88,.31,1.99,.23,3.57-.59,1.67-.87,4.12-8.7,6.31-7.84,.31,.12,.62,.42,.92,.94,.53,.93,1.36,1.83,1.86,2.17,.14,.1,.26,.15,.34,.15,.27-.02,.03-.75-1.33-2.71Z"/>
      <path class="cls-1" d="M2583.16,1498.53s0,0,0,0c.01-.01,.02-.02,.03-.03,.07-.07,.12-.12,.15-.17,.01-.02,.02-.03,.03-.04,.02-.04,.04-.06,.04-.08,0,0,0-.01,0-.02,0-.01,0-.02-.02-.02-.06-.02-.23,.13-.24,.36h0s0,0,0,0Z"/>
      <path class="cls-1" d="M2579.77,1492.23c-.1,1.12-1.28,1.82-1.94,2.95-.08,.14-.16,.29-.22,.45-.19,.47-.29,1.01-.2,1.68,.09,.66,.36,1.45,.9,2.39,.11,.2,.22,.38,.31,.55,.46,.83,.69,1.27,.92,1.37,.05,.02,.09,.03,.14,.02,.05,0,.1-.02,.15-.05,.11-.06,.23-.17,.38-.32,.45-.45,1.18-1.31,2.6-2.43,.14-.11,.25-.21,.33-.29,0,.02,0,.04,.01,.05,0,.02,0,.04,.01,.05,0,0,0,0,0,0,0,0,0,0,0,0-.01-.05,0-.09,0-.13h0s0,0,0,0c0,0-.01,.01-.02,.02,0,0,0,0,0,0-.29-1.2-.81-1.93-1.17-3.05,0,0,0,0,0,0-.03-.1-.06-.2-.09-.31,0-.02-.01-.04-.02-.06-.03-.1-.05-.2-.07-.3,0-.03-.01-.06-.02-.09-.02-.1-.04-.2-.06-.3,0-.04-.02-.08-.02-.13-.02-.1-.03-.21-.04-.31,0-.05-.01-.1-.02-.16-.01-.12-.02-.24-.03-.37,0-.05,0-.1-.01-.15-.01-.18-.02-.37-.02-.57,0-.5-.35-.84-.34-1.41,0-.29,.1-.63,.37-1.08,.27-.45,.72-1.01,1.42-1.72,.18-.19,.53-.68,.97-1.36,.44-.69,.96-1.57,1.51-2.54,.18-.32,.37-.66,.55-1,.09-.17,.18-.34,.27-.51,.18-.34,.36-.69,.54-1.04,.18-.35,.35-.7,.51-1.04,1.07-2.24,1.83-4.31,1.57-5.11-.13-.41-.05-1.05-.17-1.39-.02-.07-.06-.13-.1-.17-.09-.08-.23-.1-.44-.02-.46,.18-.54,3.39-.74,4.17-.04,.16-.18,.42-.39,.74-.35,.54-.88,1.27-1.44,2.05-.89,1.26-1.86,2.66-2.25,3.69-.25,.65-1.07,1.45-1.87,2.4-1.03,1.22-2.03,2.68-1.76,4.38,.03,.15,.03,.3,.02,.44Z"/>
      <path class="cls-1" d="M2595.03,1495.64c.17-.26,.18-.75,.15-1.37-.03-.5-.08-1.09-.11-1.72-.03-.63-.03-1.29,.04-1.94,.06-.49,.17-.97,.34-1.42,.47-1.21,0-2.08-.31-3.34-.07-.28-.13-.58-.17-.91-.11-.82-.09-1.81,.24-3.11,.2-.79,.32-1.39,.37-1.82,.06-.44,.06-.71,.02-.86-.02-.1-.06-.15-.11-.15-.14,0-.34,.39-.42,.89-.02,.17-.04,.34-.02,.52,.02,.36,.01,.67-.02,.92-.11,.9-.49,1.28-.67,1.91-.19,.64-.18,1.53,.47,3.49,.9,2.7-1.47,4.36-.23,7.05,.03,.06-.13,1.89-.64,3.03-.08,.19-.18,.36-.28,.51-.1,.14-.22,.25-.34,.33-.04,.02-.11,.33-.15,.48-.01,.05-.02,.09-.03,.09,.75-.28,.98-.58,1.15-.98,.16-.4,.26-.91,.72-1.61Z"/>
      <path class="cls-1" d="M2621.89,1511.41c-.99-.49-2.55-.85-4.92-.76-1.27,.05-3.28-.74-5.29-1.6-.22-.1-.45-.19-.67-.29-1.34-.58-2.64-1.16-3.68-1.5-2.92-.95-3.52-.96-6.35-1.61-.05-.01-.42-.15-.96-.33-.23-.08-.48-.17-.76-.26-.18-.06-.37-.12-.56-.19-.38-.12-.78-.25-1.16-.36-.57-.16-1.1-.3-1.48-.35-.64-.09-.88,.04-.24,.6,.32,.28,.59,.49,.83,.63,.12,.07,.23,.13,.33,.18,.71,.34,1.05,.08,1.62,.01,.32-.04,.71-.02,1.29,.2,.29,.11,.62,.27,1,.5,.35,.21,.7,.38,1.04,.52,1.03,.42,2.02,.59,2.97,.74,.95,.15,1.86,.28,2.71,.65,.29,.12,.57,.27,.84,.45,.15,.1,.37,.21,.65,.33,1.37,.6,4.04,1.4,5.99,1.93,.39,.11,.75,.2,1.06,.28,.31,.08,.58,.15,.79,.19,.58,.13,1.12,.22,1.64,.31,.78,.13,1.53,.25,2.31,.47,.52,.14,1.06,.33,1.63,.6,.29,.13,.58,.29,.89,.46h0c.24,.14,.13-1-1.52-1.81Z"/>
    </g>
    <path class="cls-5" d="M2538.49,1527.82c-.39-1.68-2.71-5.37,.05-7.23,.03-.02-1.26-3.31,1.2-5.63,1.01-.96,.12-1.48,1.97-3.77,.37-.45,.21-.85,1.31-1.98,1.57-2.63,3.56-3.43,4.76-3.57,.57-.72,3.14-2.73,4.02-2.32,.43,.2,3.89-3.36,6.19-1.41,3.58-1.22,6-2.85,10.02-1.26,0,0,1.2-.77,1.57-.82,3.2-.48,3.01-.8,5.41,1.67,2.23,2.29,2-.48,5.57,5.76,.59,1.03,5,8.15,4.91,8.5,.75,2.07,.4,7.45-2.24,7.96-.36,.07,.38,.06-.1,.94-1.17,2.14-1.58,5.42-4.78,5.24-.25,.27,.4,3.27-4.02,4.59-.76,.43-1.25,.15-1.52,.28-.32,1.36-3.64,3.1-5.46,2.37-1.8,1.63-3.65,1.74-4.91,1.03-.67,.44-3.94,1.64-5.7-.32-2.26,1.68-6.17-.05-6.41-1.65-3.12,1.44-6.26-.63-8.59-2.63-1.29,.46-2.29-1.15-2.81-2.06-.76-1.33-.76-2.16-.47-3.59l.04-.11Z"/>
    <g>
      <path class="cls-3" d="M2537.44,1522.03l.04-.11s-.01-.05-.02-.08c-.33,.75-.3,1.61-.12,2.46-.15-.7-.08-1.37,.1-2.27Z"/>
      <path class="cls-3" d="M2585.68,1516.6c-.39,.53-.88,.92-1.5,1.04-.37,.07,.4,.06-.11,.98-1.23,2.23-1.65,5.66-4.99,5.47-.26,.28,.41,3.42-4.19,4.79-.79,.45-1.31,.16-1.59,.29-.34,1.42-3.8,3.24-5.7,2.47-1.88,1.71-3.81,1.82-5.13,1.08-.7,.46-4.11,1.71-5.95-.33-2.35,1.76-6.44-.05-6.69-1.72-3.25,1.5-6.53-.66-8.96-2.74-1.34,.48-2.39-1.2-2.93-2.15-.27-.48-.45-.9-.55-1.3,.31,1.29,.92,2.55,1.11,3.34l-.04,.11c-.29,1.43-.29,2.26,.47,3.59,.52,.9,1.52,2.52,2.81,2.06,2.33,2,5.47,4.06,8.59,2.63,.24,1.6,4.15,3.33,6.41,1.65,1.76,1.96,5.03,.76,5.7,.32,1.26,.71,3.12,.6,4.91-1.03,1.82,.73,5.14-1.01,5.46-2.37,.27-.13,.77,.15,1.52-.28,4.41-1.32,3.77-4.32,4.02-4.59,3.2,.19,3.61-3.1,4.78-5.24,.48-.88-.25-.88,.1-.94,2.34-.45,2.88-4.71,2.45-7.12Z"/>
    </g>
    <path class="cls-3" d="M2592.57,1508.49c2.4-.64,4.22,3.95-.58,6.2-2.13,1-8.91,.88-11.06-.77-2.3-1.77-4.74-1.13-2.93-3.94,.95-1.48-2.89-8.15,6.18-13.33,3.25-1.86,6.5,1.52,3.94,2.69-.84,.38-.49,1.81,.46,1.01,1.05-.89-.43-3.58,2.22-2.74,.97,.31,.38,1.81,2.03-.43,2.05-2.77,2.82-.41,1.78,.21-.64,.39-2.52,.73-1.21,2.38,.68,.87,2.69-3.38,3.84,2.07,.46,2.17-2.29-.29-1.02,2.31,.84,1.72-2.32-.88-.46,2.16,.21,.34,.39,3.26-2.01,1.35-.2-.16-2.77,.21-1.19,.83Z"/>
    <path class="cls-2" d="M2595.64,1508.31c-.73,.42-1.63,.22-2.02-.45-.38-.67-.1-1.55,.63-1.97,.73-.42,1.63-.22,2.02,.45,.38,.67,.1,1.55-.63,1.97Z"/>
    <path class="cls-2" d="M2590.95,1499.55c-.73,.42-1.63,.21-2.02-.45-.38-.67-.1-1.55,.63-1.97,.73-.42,1.63-.22,2.02,.45,.38,.67,.1,1.55-.63,1.97Z"/>
  </g>
  <g>
    <path class="cls-4" d="M2809.22,1531.01c-.82-.24-7.73,2.46-8.91,3.13-1.69,.96-5.92,3.58-7.7,3.87-1.87,.31-3.65,1.85-5.64,1.17-.01,0-.14,.44-.18,.49-.88,1.24-1.9,2.2-3.06,3.16-1.27,1.05-5.18,1.2-.47-1.19,1.59-.8,2.76-3.62,4.77-4.33,.16,.1,4.92-1.3,5.41-1.57,2.16-1.16,4.09-2.11,6.45-2.79,1.42-.4,2.04-1.29,4.32-1.68,1.44-.25,1.49-.87,2.98-.93,.89-.03,1.54-.23,2.04,.65Z"/>
    <g>
      <path class="cls-1" d="M2807.18,1530.35c-1.48,.06-1.53,.68-2.98,.93-2.28,.39-2.9,1.27-4.32,1.68-2.36,.67-4.28,1.63-6.45,2.79-.49,.26-5.25,1.66-5.41,1.57-2.01,.72-3.18,3.53-4.77,4.33-4.71,2.38-.8,2.24,.47,1.19,1.16-.97,2.18-1.93,3.06-3.16,.04-.05,.16-.49,.18-.49,1.99,.68,3.77-.86,5.64-1.17,1.79-.3,6.01-2.92,7.7-3.87,1.18-.67,8.09-3.36,8.91-3.13-.5-.88-1.15-.68-2.04-.65Z"/>
      <path class="cls-1" d="M2797.87,1494.71c-.51-.31-1.1-.66-1.74-.99-.27-.14-.55-.28-.84-.41-.19-.09-.39-.17-.59-.25-1.58-.62-3.28-.91-4.68-.18-.35,.18-.68,.43-.99,.75-.5,.53-2.05,1.87-3.91,3.43-.34,.28-.69,.58-1.04,.87-.36,.3-.72,.59-1.08,.89-.91,.75-1.84,1.5-2.71,2.2-1.57,1.25-2.96,2.33-3.79,2.92-.28,.19-.49,.33-.62,.41-1.32,.7-1.91,1.29-2.31,1.78-.76,.93-.84,1.45-3.97,1.55-1.36,.04-2.16,.59-2.73,.87-.19,.09-.35,.15-.5,.15-.15,0-.3,.02-.45,.07-.86,.26-1.5,1.17-1.21,1.34,.05,.03,.12,.04,.23,.02,2.7-.51,4.32-2.15,8.35-2.06,.21,0,.55-.13,.99-.36,.11-.06,.23-.12,.35-.19,.25-.14,.52-.31,.8-.49,.58-.37,1.23-.82,1.92-1.32,3.64-2.63,8.43-6.65,9.42-7.67,.24-.25,.47-.48,.67-.7,1.42-1.53,1.93-2.29,2.43-2.44,.22-.07,.43-.02,.72,.13,.48,.24,1.17,.77,2.4,1.51,.1,.06,.18,.1,.26,.13,.08,.03,.14,.05,.2,.07,.3,.07,.41-.07,.52-.02,.02,0,.04,.03,.07,.05h0c.07-.04,.2-.1,.37-.16,.08-.03,.18-.07,.28-.11,1.3-.49,3.86-1.35,3.18-1.78Z"/>
      <path class="cls-1" d="M2807.27,1486.14c.82-.08,1.62-.16,2.34-.23,.72-.06,1.36-.12,1.87-.15,.64-.04,1.09-.04,1.25,0,.03,0,.05,.02,.06,.03,.46,.81,.25,2.3,.04,3.92-.02,.15-.04,.3-.05,.44-.04,.3-.07,.6-.09,.9-.04,.45-.07,.9-.06,1.33,0,.29,.02,.57,.05,.85,.02,.14,.04,.27,.06,.41,.19,1.06,.69,1.94,1.73,2.44,.52,.25,1.19,.4,2.02,.43,.03,0,.11,.03,.22,.08,.16,.08,.37,.19,.55,.29,.06,.03,.11,.07,.16,.1,.09,.06,.15,.11,.15,.13h0s0,0,0,0c.18-1.41-.43-4.68-1.13-7.24-.32-1.16-.66-2.17-.96-2.79-.69-1.44-.61-2.35-1.22-2.75-.07-.05-.14-.08-.23-.12s-.18-.06-.29-.08c-.33-.06-.77-.07-1.38-.03-.4,.03-.88,.08-1.45,.16-.38,.05-.76,.08-1.14,.1-.19,.01-.38,.02-.57,.04-.38,.02-.76,.05-1.15,.11-.58,.08-1.18,.21-1.81,.45,0,0-.02,0-.06,0-.08,.01-.22,.03-.41,.06-.77,.11-2.32,.32-3.55,.56-.46,.09-.88,.18-1.2,.26-.11,.03-.2,.06-.28,.08s-.15,.05-.2,.08c-.27,.14-1.92,.02-2.67,.09-.08,0-.16,.02-.21,.03-.23,.05-.24,.16,.19,.35,.21,.1,.53,.21,.98,.36,.43,.14,4.28-.28,7.82-.64,.21-.02,.42-.04,.62-.06Z"/>
      <path class="cls-1" d="M2832.28,1520.78c-.12-.24-.29-.51-.48-.8-.48-.73-1.14-1.58-1.68-2.26-.54-.68-.97-1.19-1.01-1.25-.54-.9-1.01-1.49-1.43-1.97-.7-.79-1.26-1.25-1.83-2.25t0,0s0,0,0,0c.41,.72-.19,1.45-.82,2.02-.48,.43-.42,1.05-.05,1.77,.18,.36,.44,.74,.74,1.14s.65,.81,1.01,1.22c.18,.21,.36,.41,.54,.62,1.27,1.45,2.51,2.86,2.36,3.76-.34,2.12-1.68,4.34-3.34,6.1-.33,.35-.68,.69-1.03,1-.7,.62-1.44,1.16-2.16,1.56,.37,1.14,1.08,3.17,.87,4.53-.03,.19-.08,.38-.15,.54-.2,.46-.2,.85-.11,1.14,.03,.1,.07,.18,.12,.25,.1,.14,.22,.23,.34,.26,.06,.01,.11,0,.17-.01,.05-.02,.1-.06,.13-.12,.7-1.2,.58-2.21,.27-3-.08-.2-.16-.38-.25-.55-.09-.17-.18-.33-.26-.47-.16-.28-.29-.51-.29-.68,0-.11,.07-.31,.22-.58,.15-.26,.36-.59,.62-.97,.26-.37,.56-.79,.89-1.22,.49-.65,1.04-1.35,1.57-2.01,.89-1.11,1.75-2.13,2.25-2.7,.2-.23,.35-.39,.41-.45,1.77-1.64,1.87-2.53,1.78-3.05-.04-.26-.14-.42-.09-.53,.02-.06,.08-.1,.19-.13s.29-.07,.54-.09c.07,0,.11-.03,.14-.07,.08-.13,0-.4-.18-.75Z"/>
      <path class="cls-1" d="M2849.88,1504.21c-.46-.67-1.03-1.14-1.65-1.42-.15-.07-.31-.13-.47-.17-.8-.23-1.64-.16-2.4,.19-.91,.43-1.7,1.27-2.14,2.5-.12,.33-.75,1.22-1.35,2.16-.15,.24-.3,.47-.43,.71-.41,.7-.73,1.37-.72,1.79,0,.01-.02,0-.07-.02-.51-.33-3.92-3.52-5.4-4.39-.12-.07-.23-.13-.33-.17-.19-.07-.31-.07-.35,.03-.11,.31-.23,.57-.35,.79-.12,.22-.23,.39-.34,.53-.22,.28-.43,.42-.59,.53-.2,.13-.33,.19-.32,.37,0,.1,.05,.25,.16,.46h0c.21,.06,.41,.14,.59,.23,1.86,.89,2.69,3.07,4.45,3.7,.88,.32,1.99,.25,3.57-.57,1.68-.86,4.17-8.67,6.35-7.81,.31,.12,.62,.42,.91,.95,.53,.93,1.35,1.84,1.85,2.18,.14,.1,.26,.15,.34,.15,.27-.02,.03-.75-1.31-2.72Z"/>
      <path class="cls-1" d="M2824.38,1491.89s0,0,0,0c.01-.01,.02-.02,.03-.03,.07-.07,.12-.12,.16-.17,.01-.02,.02-.03,.03-.04,.02-.04,.04-.06,.04-.08,0,0,0-.01,0-.02,0-.01,0-.02-.02-.02-.06-.02-.23,.13-.24,.36h0s0,0,0,0Z"/>
      <path class="cls-1" d="M2821.03,1485.58c-.1,1.11-1.29,1.81-1.96,2.94-.08,.14-.16,.29-.23,.44-.2,.47-.29,1.01-.21,1.68,.09,.66,.36,1.45,.89,2.4,.11,.2,.21,.38,.31,.55,.46,.84,.68,1.27,.91,1.38,.05,.02,.09,.03,.14,.02,.05,0,.1-.02,.15-.05,.11-.06,.23-.17,.38-.32,.46-.45,1.19-1.3,2.61-2.42,.14-.11,.25-.2,.34-.29,0,.02,0,.04,.01,.05,0,.02,0,.04,.01,.05,0,0,0,0,0,0,0,0,0,0,0,0-.01-.05,0-.09,0-.13h0s0,0,0,0c0,0-.01,.01-.02,.02,0,0,0,0,0,0-.29-1.2-.8-1.94-1.16-3.06,0,0,0,0,0,0-.03-.1-.06-.2-.09-.31,0-.02-.01-.04-.02-.06-.03-.1-.05-.2-.07-.3,0-.03-.01-.06-.02-.09-.02-.1-.04-.2-.05-.3,0-.04-.02-.08-.02-.13-.02-.1-.03-.21-.04-.31,0-.05-.01-.1-.02-.16-.01-.12-.02-.24-.03-.37,0-.05,0-.1-.01-.15,0-.18-.02-.37-.02-.57,0-.5-.35-.84-.33-1.41,0-.29,.1-.63,.38-1.08,.27-.45,.72-1,1.43-1.71,.19-.18,.53-.67,.97-1.36,.44-.68,.97-1.56,1.52-2.53,.18-.32,.37-.66,.55-1,.09-.17,.18-.34,.28-.51,.18-.34,.37-.69,.54-1.04,.18-.35,.35-.7,.52-1.04,1.08-2.23,1.85-4.3,1.6-5.1-.13-.41-.04-1.05-.17-1.39-.02-.07-.06-.13-.1-.17-.09-.08-.23-.1-.44-.02-.46,.18-.56,3.38-.76,4.16-.04,.16-.18,.42-.39,.74-.35,.54-.88,1.26-1.45,2.05-.9,1.25-1.87,2.65-2.27,3.68-.25,.65-1.08,1.45-1.88,2.39-1.04,1.21-2.05,2.67-1.78,4.37,.02,.15,.03,.3,.02,.44Z"/>
      <path class="cls-1" d="M2836.27,1489.08c.17-.25,.19-.75,.16-1.37-.02-.5-.08-1.09-.1-1.72-.03-.63-.03-1.29,.06-1.94,.06-.49,.17-.97,.35-1.41,.48-1.21,.02-2.08-.29-3.34-.07-.28-.13-.58-.17-.91-.1-.82-.08-1.81,.25-3.11,.2-.79,.32-1.39,.38-1.82,.06-.44,.06-.71,.03-.86-.02-.1-.06-.15-.11-.15-.14,0-.34,.39-.42,.89-.03,.17-.04,.34-.03,.52,.02,.36,0,.67-.02,.92-.12,.9-.49,1.28-.68,1.91-.19,.63-.19,1.53,.45,3.49,.88,2.71-1.5,4.36-.27,7.05,.03,.06-.14,1.89-.66,3.03-.09,.19-.18,.36-.28,.5-.1,.14-.22,.25-.34,.32-.04,.02-.11,.33-.15,.48-.01,.05-.02,.09-.03,.09,.75-.28,.99-.57,1.15-.97,.17-.4,.26-.91,.73-1.61Z"/>
      <path class="cls-1" d="M2863.04,1504.98c-.99-.49-2.54-.87-4.91-.78-1.27,.05-3.27-.76-5.28-1.63-.22-.1-.45-.2-.67-.29-1.33-.59-2.63-1.17-3.67-1.52-2.91-.97-3.51-.98-6.34-1.64-.05-.01-.42-.15-.95-.34-.23-.08-.48-.17-.76-.26-.18-.06-.37-.13-.56-.19-.38-.13-.78-.25-1.16-.36-.57-.17-1.1-.3-1.48-.36-.64-.09-.88,.03-.24,.6,.32,.28,.59,.49,.82,.64,.12,.07,.23,.14,.33,.18,.71,.34,1.05,.09,1.62,.02,.32-.04,.71-.02,1.28,.21,.28,.11,.61,.28,1,.51,.35,.21,.7,.38,1.04,.52,1.03,.43,2.02,.6,2.97,.75,.95,.15,1.86,.29,2.71,.66,.28,.12,.56,.27,.84,.45,.15,.1,.37,.22,.65,.34,1.36,.61,4.04,1.42,5.98,1.96,.39,.11,.75,.2,1.06,.29,.31,.08,.58,.15,.79,.2,.58,.13,1.12,.23,1.64,.32,.78,.13,1.53,.26,2.31,.48,.52,.15,1.05,.34,1.63,.61,.29,.13,.58,.29,.89,.47h0c.24,.14,.14-1-1.51-1.82Z"/>
    </g>
    <path class="cls-5" d="M2779.56,1520.95c-.38-1.68-2.68-5.39,.08-7.23,.03-.02-1.24-3.31,1.23-5.63,1.02-.95,.13-1.48,1.99-3.76,.37-.45,.21-.85,1.32-1.97,1.58-2.62,3.58-3.41,4.78-3.55,.57-.71,3.15-2.71,4.04-2.3,.43,.2,3.91-3.33,6.2-1.38,3.59-1.2,6.02-2.81,10.03-1.2,0,0,1.2-.76,1.57-.82,3.2-.47,3.01-.79,5.4,1.7,2.22,2.31,2-.47,5.53,5.79,.58,1.03,4.96,8.18,4.87,8.52,.74,2.07,.36,7.45-2.28,7.94-.36,.06,.38,.06-.11,.94-1.19,2.13-1.61,5.41-4.81,5.21-.25,.27,.38,3.27-4.04,4.57-.76,.43-1.25,.14-1.52,.27-.33,1.36-3.65,3.08-5.47,2.34-1.81,1.63-3.66,1.72-4.92,1.01-.67,.43-3.95,1.62-5.7-.35-2.27,1.67-6.17-.08-6.4-1.68-3.13,1.42-6.25-.67-8.57-2.67-1.29,.46-2.29-1.16-2.8-2.07-.75-1.34-.75-2.16-.45-3.59l.04-.11Z"/>
    <g>
      <path class="cls-3" d="M2778.54,1515.15l.04-.11s-.01-.05-.02-.08c-.33,.75-.31,1.61-.14,2.46-.14-.7-.07-1.37,.11-2.27Z"/>
      <path class="cls-3" d="M2826.81,1509.98c-.39,.53-.89,.91-1.51,1.03-.37,.07,.4,.07-.11,.98-1.24,2.23-1.68,5.65-5.02,5.44-.26,.28,.39,3.42-4.22,4.77-.79,.45-1.31,.15-1.59,.29-.34,1.42-3.81,3.22-5.71,2.44-1.88,1.7-3.82,1.8-5.13,1.05-.7,.45-4.12,1.69-5.95-.37-2.36,1.74-6.44-.09-6.68-1.76-3.26,1.48-6.53-.69-8.95-2.79-1.35,.48-2.39-1.22-2.92-2.16-.27-.48-.44-.9-.54-1.3,.3,1.3,.91,2.55,1.09,3.35l-.04,.11c-.29,1.43-.3,2.25,.45,3.59,.51,.91,1.51,2.53,2.8,2.07,2.32,2.01,5.45,4.09,8.57,2.67,.23,1.6,4.13,3.35,6.4,1.68,1.75,1.97,5.03,.78,5.7,.35,1.25,.71,3.11,.62,4.92-1.01,1.82,.74,5.14-.98,5.47-2.34,.27-.13,.76,.16,1.52-.27,4.42-1.29,3.79-4.3,4.04-4.57,3.2,.2,3.62-3.08,4.81-5.21,.49-.88-.25-.88,.11-.94,2.34-.44,2.9-4.69,2.49-7.1Z"/>
    </g>
    <path class="cls-3" d="M2833.74,1501.91c2.41-.62,4.2,3.97-.61,6.19-2.14,.99-8.92,.83-11.06-.83-2.29-1.78-4.74-1.16-2.91-3.96,.96-1.47-2.84-8.16,6.25-13.3,3.26-1.84,6.5,1.55,3.93,2.71-.84,.38-.5,1.81,.46,1.01,1.06-.88-.41-3.58,2.24-2.72,.97,.31,.37,1.81,2.03-.42,2.06-2.76,2.82-.39,1.78,.22-.64,.38-2.52,.72-1.23,2.38,.68,.87,2.71-3.36,3.83,2.09,.45,2.17-2.29-.3-1.03,2.31,.83,1.73-2.32-.89-.47,2.15,.21,.34,.37,3.26-2.01,1.34-.2-.16-2.77,.2-1.19,.82Z"/>
    <path class="cls-2" d="M2836.82,1501.74c-.73,.41-1.63,.21-2.01-.46-.38-.67-.09-1.55,.64-1.96,.73-.41,1.63-.21,2.01,.46,.38,.67,.09,1.55-.64,1.96Z"/>
    <path class="cls-2" d="M2832.17,1492.96c-.73,.41-1.63,.2-2.01-.46-.38-.67-.09-1.55,.64-1.96,.74-.42,1.64-.21,2.01,.46,.38,.67,.09,1.55-.64,1.96Z"/>
  </g>
</svg>