<?xml version="1.0" encoding="utf-8"?>
<!-- Generator: Adobe Illustrator 27.0.1, SVG Export Plug-In . SVG Version: 6.00 Build 0)  -->
<svg version="1.1" id="Vrstva_1" xmlns="http://www.w3.org/2000/svg" xmlns:xlink="http://www.w3.org/1999/xlink" x="0px" y="0px"
	 width="387px" height="290.1px" viewBox="0 0 387 290.1" style="enable-background:new 0 0 387 290.1;" xml:space="preserve">
<style type="text/css">
	.st0{fill-rule:evenodd;clip-rule:evenodd;fill:#999999;}
	.st1{fill-rule:evenodd;clip-rule:evenodd;fill:#FFFFFF;}
	.st2{fill-rule:evenodd;clip-rule:evenodd;fill:#E5B8AD;}
	.st3{fill-rule:evenodd;clip-rule:evenodd;fill:#636363;}
</style>
<g id="kocka">
	<g>
		<path class="st0" d="M351.5,64.8c5.1,6.9,14.4,17.9,15.8,20.4c9,15.7,14.9,33.5,17.6,51.4c2.9,19.5,4,40.5-3.1,59.2
			c-6.1,15.9-13.5,24.6-20.4,46.5c-3.3,10.3-0.6,41-7.5,46c-6.9,5.1-12.5-2-14.1-7.3c-12.3-42.3,14-83.2,17.8-111.1
			c0.8-5.9,1.2-37.4-5.2-41c-0.5-0.3-7.4,7.4-12.1,8.5c-14.5,3.5-76.3,3.7-99.1,4.5c-6.2,0.2-20.7-1.2-20.7-1
			c-2,4-11.1,34.1-11.4,78.4c-0.1,8.9,3.1,28.8-8.3,32.7c-14.3,4.9-21.8-12.1-24.1-23c-4.6-21.3-2-42.9-1.7-64.4
			c0.1-7.4,0.9-21-6.4-25.8c-3.7-2.4-8.5-3.5-12.6-4.6c-3.9-1-16.2-5.6-18.1-5.6c-1.1,0-0.8,4.2-1.7,7.9
			c-2.9,11.8-10,15.2-15.9,17.4c-9.8,3.6-17.4,0-27.2,0.7c-8,0.6-14.7,1.4-23.1,0.9c-15.5-1-26.3-12.2-34.3-24.4
			c-2.1-3.2-3-8.2-6.6-10c-4.6-2.4-26.7,6-28.8-0.6c-1.1-3.3,4.7-8.4,5.6-9.7c5.9-8.3,12.8-16.9,21.9-21.9c5.8-3.1,4.1-7.4,7.2-12.9
			c3.6-6.3,16.7-19.4,29.3-24.2c6.7-2.5,17.6-2.9,21.7-7.4c2.3-2.5,21-30,27.9-31.5c9.5-2.2,4.7,28.6,5.2,28.7
			c5.9,0.2,13.4-6.7,19.7-7.9c14.6-2.7,30.1-0.1,43.8-6.9c32-15.8,70.8-34.6,106.9-23.1c20.1,6.4,35.6,22.2,46.7,39.5
			C340.6,50.4,346.3,57.8,351.5,64.8L351.5,64.8z"/>
		<g>
			<path class="st1" d="M353.8,73.1c10.3,20.3,7.3,31.4,1.2,51.9c-0.1,0.5-0.7,0.8-1.2,0.6c-0.5-0.1-0.8-0.7-0.6-1.2
				c5.9-20,8.9-30.7-1.1-50.5c-0.2-0.5-0.1-1,0.4-1.3C353,72.5,353.6,72.7,353.8,73.1L353.8,73.1z"/>
			<path class="st1" d="M198.4,102.6c-0.1,0-0.1,0-0.2,0c-0.5,0-0.9-0.5-0.9-1c0-0.3,0.1-0.5,0.3-0.7c0.1-0.1,0.4-0.3,0.8-0.2
				c0.3,0,0.8,0.2,1.5,0.5c1.3,0.6,3,1.5,3.1,1.6c2.8,1.8,5.5,3.9,7.9,6.2c7.6,7.4,10.4,16.5,10.9,26.9c0,0.5-0.4,1-0.9,1
				c-0.5,0-1-0.4-1-0.9c-0.4-9.9-3-18.6-10.3-25.7c-2.3-2.2-4.8-4.3-7.6-6c-0.1-0.1-1.7-0.9-2.9-1.5
				C198.9,102.8,198.5,102.7,198.4,102.6L198.4,102.6z M199.1,102.1c0-0.1,0.1-0.2,0.1-0.3C199.2,101.9,199.2,102,199.1,102.1
				L199.1,102.1z"/>
			<path class="st1" d="M203.6,248.8c-4.3-2.6-5.4-5.5-5.7-7.9c-0.1-0.5,0.3-1,0.8-1.1c0.5-0.1,1,0.3,1.1,0.8c0.3,2,1.2,4.4,4.8,6.6
				c0.4,0.3,0.6,0.8,0.3,1.3C204.6,248.9,204,249.1,203.6,248.8L203.6,248.8z"/>
			<path class="st1" d="M195.3,252.2c-6.3-2.7-7.7-7.9-7.3-11.1c0.1-0.5,0.5-0.9,1-0.8c0.5,0.1,0.9,0.5,0.8,1
				c-0.3,2.7,0.9,7,6.2,9.2c0.5,0.2,0.7,0.8,0.5,1.2C196.3,252.2,195.8,252.4,195.3,252.2L195.3,252.2z"/>
			<path class="st1" d="M129.8,70.3c2.6,3.2,5.2,6.4,7.2,10c5.5,10,5.6,18.8,4.2,27.8c-0.9,5.9-2.5,11.9-3.6,18.5
				c-0.1,0.5-0.6,0.9-1.1,0.8c-0.5-0.1-0.9-0.6-0.8-1.1c1.1-6.6,2.7-12.6,3.6-18.5c1.3-8.6,1.3-17-4-26.6c-1.9-3.5-4.5-6.7-7-9.7
				c-0.3-0.4-0.3-1,0.1-1.3C128.9,69.8,129.5,69.9,129.8,70.3L129.8,70.3z"/>
			<path class="st1" d="M124.9,88.5c0,8.9-5,17.3-14.4,18.3c-0.5,0.1-1-0.3-1-0.8c-0.1-0.5,0.3-1,0.8-1c8.4-0.9,12.8-8.5,12.8-16.4
				c0-0.5,0.4-0.9,0.9-0.9C124.5,87.5,124.9,87.9,124.9,88.5L124.9,88.5z"/>
			<path class="st1" d="M88.6,119.3c-0.8,2.3-2.1,5.2-3.3,6.6c-2.3,2.8-6.3,5.6-10.4,6.5c-2.9,0.7-5.8,0.5-8.2-1.1
				c-0.4-0.3-0.6-0.9-0.3-1.3c0.3-0.4,0.9-0.6,1.3-0.3c2,1.3,4.4,1.4,6.8,0.8c3.7-0.9,7.3-3.3,9.4-5.9c1-1.3,2.2-3.9,3-6
				c0.2-0.5,0.7-0.8,1.2-0.6C88.6,118.2,88.8,118.8,88.6,119.3L88.6,119.3z"/>
			<path class="st1" d="M117.9,43.1c-0.2,1.7-0.6,3.4-1.1,5.1c-1.1,4.2-2.1,7.8-1.9,12.1c0,0.5-0.4,1-0.9,1c-0.5,0-1-0.4-1-0.9
				c-0.3-4.6,0.7-8.3,1.9-12.7c0.4-1.6,0.9-3.2,1-4.8c0.1-0.5,0.5-0.9,1-0.8C117.6,42.1,118,42.6,117.9,43.1L117.9,43.1z"/>
			<path class="st1" d="M51.4,116.1c-0.5,0.8-1.4,1.4-2.3,1.8c-1.2,0.6-2.4,0.8-2.7,0.9c-2.9,0.9-5.9,1.2-8.9,1
				c-2-0.1-4.5-0.6-6.4,0.1c-0.5,0.2-1,0-1.2-0.5c-0.2-0.5,0-1,0.5-1.2c2.2-0.9,4.9-0.4,7.2-0.3c2.8,0.1,5.6-0.1,8.3-0.9
				c0.2-0.1,1.4-0.3,2.4-0.8c0.6-0.3,1.2-0.6,1.5-1.2c0.3-0.4,0.9-0.6,1.3-0.3C51.5,115.1,51.6,115.6,51.4,116.1L51.4,116.1z"/>
			<path class="st1" d="M106.3,148.2c0.2-0.5,0.7-0.8,1.2-0.6c1.3,0.4,3.3,0.4,5.3-0.5c2.6-1.1,4.5-2.8,5-4.8
				c0.4-1.3,0.2-2.8-0.7-4.3c0,0,0,0,0,0c-0.8-0.9-1.5-2.1-2.3-2.8c-0.4-0.4-0.3-1,0.1-1.3c0.4-0.4,1-0.3,1.3,0.1
				c0.7,0.8,1.5,1.9,2.3,2.9c0.4,0.5,0.9,0.9,1.3,1.2c2.9,1.3,5.6,0.3,7.9-2.1c0.7-0.7,1.2-1.7,1.6-3.2c0.2-0.5,0.7-0.8,1.2-0.6
				c0.5,0.2,0.8,0.7,0.6,1.2c-0.6,1.8-1.2,3-2.1,3.9c-2.7,2.9-6,4-9.4,2.8c0.2,1,0.1,2-0.1,2.9c-0.7,2.5-2.9,4.7-6.1,6.1
				c-2.5,1.1-5,1.1-6.6,0.5C106.4,149.3,106.2,148.7,106.3,148.2z"/>
		</g>
		<path class="st2" d="M115.4,123.3c0.7-0.5,1.8-0.7,2.3-0.8c1.2-0.1,2.5,0.2,3,1.4c0.9,2.2-1.1,3.6-2.1,5.2
			c-1.1,1.9,0.8,4.5-2.5,6.4c-2.2,1.3-3.3-0.6-5-0.6c-1.8,0-3.2,1.9-5.3,0.8c-1-0.5-2.2-1.3-1.8-2.9c0.3-1.2,2.5-2.7,3.5-3.2
			C110.7,128.1,113.7,124.5,115.4,123.3L115.4,123.3z"/>
		<g>
			<path class="st3" d="M121.3,133.8c0.1,0.2,0.2,0.4,0.4,0.5c0.5,0.3,1,0.1,1.3-0.4c0.1-0.2,0.2-0.6,0-0.9
				c-0.2-0.3-0.5-0.5-0.7-0.5c-0.5-0.1-1,0.3-1.1,0.8C121.3,133.5,121.3,133.7,121.3,133.8L121.3,133.8z"/>
			<path class="st3" d="M127,131.2c0.4,0.3,0.5,0.8,0.2,1.3c-0.3,0.4-0.8,0.6-1.3,0.3c0,0-0.3-0.3-0.4-0.4c-0.2-0.5,0-1,0.5-1.2
				C126.4,130.9,126.8,131,127,131.2L127,131.2z M126,132.8L126,132.8C126,132.8,126,132.8,126,132.8L126,132.8L126,132.8z"/>
			<path class="st3" d="M122.1,129.6c-0.5-0.2-0.6-0.8-0.4-1.3c0.1-0.3,0.4-0.4,0.7-0.5c0.1,0,0.2,0,0.4,0c0.1,0,0.4,0.2,0.4,0.2
				s0,0,0,0c0.4,0.3,0.5,0.9,0.2,1.3C123.1,129.8,122.5,129.9,122.1,129.6L122.1,129.6z M122.8,129.7c0.2-0.1,0.4-0.2,0.6-0.5
				C123.2,129.5,123,129.6,122.8,129.7L122.8,129.7z"/>
			<path class="st3" d="M114.9,142.8c0.5,0,0.9-0.4,0.9-0.9c0-0.5-0.4-0.9-0.9-0.9c-0.1,0-0.9-0.1-1,1
				C113.8,142.8,114.8,142.8,114.9,142.8L114.9,142.8L114.9,142.8L114.9,142.8z"/>
			<path class="st3" d="M106.1,139.1c0,0,0.1,0.1,0.2,0.1c0.4,0.4,0.4,1,0,1.3c-0.3,0.3-0.8,0.4-1.2,0.1l0,0
				c-0.4-0.3-0.5-0.9-0.3-1.3C105.1,139,105.6,138.9,106.1,139.1L106.1,139.1z M106.1,139.1L106.1,139.1
				C106.1,139.1,106.1,139.1,106.1,139.1L106.1,139.1L106.1,139.1z"/>
			<path class="st3" d="M109.8,145.1c0,0,0.1,0.1,0.2,0.1c0.4,0.4,0.4,1,0,1.3c-0.3,0.3-0.8,0.4-1.2,0.1l0,0
				c-0.4-0.3-0.5-0.9-0.3-1.3C108.8,144.9,109.3,144.8,109.8,145.1L109.8,145.1z M109.8,145.1L109.8,145.1
				C109.8,145.1,109.8,145.1,109.8,145.1L109.8,145.1L109.8,145.1z"/>
			<path class="st3" d="M110.8,142.3C110.8,142.3,110.8,142.3,110.8,142.3c0,0.1-0.1,0.2-0.2,0.4c-0.1,0.1-0.2,0.2-0.4,0.3
				c-0.5,0.2-1-0.1-1.2-0.5c-0.1-0.3-0.1-0.5,0-0.5c0-0.1,0-0.3,0.3-0.5c0.4-0.3,1-0.3,1.3,0.1C110.8,141.7,110.9,142,110.8,142.3
				L110.8,142.3z M110.8,142.3c-0.1,0.2-0.2,0.3-0.3,0.5c0,0,0.1-0.1,0.1-0.1C110.7,142.6,110.7,142.5,110.8,142.3L110.8,142.3
				L110.8,142.3z"/>
			<path class="st3" d="M111.8,138.9c0,0-0.1,0.1-0.1,0.1c-0.3,0.2-0.6,0.2-0.9,0.1c-0.4-0.2-0.7-0.7-0.6-1.1
				c0.2-0.6,1.5-0.5,1.5-0.5s-0.1-0.1-0.1-0.1c0.5,0.2,0.6,0.8,0.4,1.3C112,138.7,111.9,138.8,111.8,138.9L111.8,138.9z
				 M111.4,139.1c0.1,0,0.2-0.1,0.3-0.1c0,0,0.1-0.1,0.1-0.1c0.1-0.1,0.2-0.3,0.3-0.5C112,138.7,111.7,139,111.4,139.1L111.4,139.1z
				"/>
		</g>
		<g>
			<path class="st3" d="M210.9,134.7c0.5,1,0.8,1.9,1,2.9c0.7,2.7,0.7,5.2-0.1,7.6c-0.2,0.5-0.7,0.8-1.2,0.6
				c-0.5-0.2-0.8-0.7-0.6-1.2c0.7-2.1,0.6-4.2,0-6.5c-0.2-0.8-0.5-1.6-0.9-2.5c-0.2-0.5-0.1-1,0.4-1.3
				C210.1,134,210.7,134.2,210.9,134.7L210.9,134.7z"/>
			<path class="st3" d="M204.5,137.7c0.1,1,0.1,2,0.1,3c0,2.9,0,5.8-0.3,8.7c0,0.5-0.5,0.9-1,0.9c-0.5,0-0.9-0.5-0.9-1
				c0.3-2.8,0.3-5.7,0.3-8.5c0-1,0-1.9-0.1-2.9c0-0.5,0.4-1,0.9-1C204,136.8,204.5,137.2,204.5,137.7L204.5,137.7z"/>
			<path class="st3" d="M196,134c0.2,1.2,0.3,2.3,0.4,3.4c0.1,3.2-0.1,6.4-1.4,9.3c-0.2,0.5-0.8,0.7-1.3,0.5
				c-0.5-0.2-0.7-0.8-0.5-1.3c1.2-2.6,1.3-5.5,1.2-8.4c0-1-0.1-2.1-0.3-3.1c-0.1-0.5,0.2-1,0.7-1.1C195.4,133.2,195.9,133.5,196,134
				L196,134z"/>
			<path class="st3" d="M198.5,156.8c0.4,1.4,0.3,3.1,0.2,5c-0.2,2.5-0.8,5.3-0.9,7.3c0,0.5-0.5,0.9-1,0.9c-0.5,0-0.9-0.5-0.9-1
				c0.1-2,0.6-4.8,0.9-7.4c0.2-1.6,0.2-3.1-0.1-4.3c-0.1-0.5,0.2-1,0.7-1.2C197.8,156,198.4,156.3,198.5,156.8L198.5,156.8z"/>
			<path class="st3" d="M207.5,154c-0.1,1.1-0.3,3.8-0.5,4.6c-0.4,2.2-1.1,3.3-1.5,5.6c-0.1,0.5,0.3,1,0.8,1.1
				c0.5,0.1,1-0.3,1.1-0.8c0.4-2.2,1.1-3.3,1.5-5.5c0.2-1.1,0.5-4.6,0.5-5.3c0-0.4-0.1-0.6-0.2-0.7c-0.2-0.3-0.5-0.4-0.7-0.4
				c-0.2,0-0.4,0-0.6,0.1c0,0-0.4,0.2-0.5,0.9C207.5,153.8,207.5,153.9,207.5,154L207.5,154z"/>
			<path class="st3" d="M196.8,184c-0.9,4.9-0.2,7.6,0.4,9.3c0.3,0.9,0.5,1.5,0.6,2c0.1,0.5-0.3,1-0.8,1c-0.5,0.1-1-0.3-1-0.8
				c0-0.4-0.3-0.9-0.5-1.6c-0.6-1.9-1.4-4.9-0.5-10.3c0.1-0.5,0.6-0.9,1.1-0.8C196.6,183,196.9,183.5,196.8,184L196.8,184z"/>
			<path class="st3" d="M203.6,178.6c0,0.3-0.2,2-0.2,2.2c-0.2,3-0.3,5.9-0.4,8.9c0,0.5,0.4,1,0.9,1c0.5,0,1-0.4,1-0.9
				c0.1-3,0.2-5.9,0.4-8.9c0-0.2,0.3-2.2,0.2-2.7c-0.1-0.4-0.4-0.6-0.5-0.7c-0.5-0.2-1-0.1-1.3,0.4
				C203.5,178.1,203.5,178.4,203.6,178.6L203.6,178.6z"/>
			<path class="st3" d="M372.8,112.2c1.5,1.6,2.2,3.1,2.8,5.3c0.4,1.4,0.6,2.9,0.8,4.4c0.1,0.5-0.2,1-0.8,1.1
				c-0.5,0.1-1-0.2-1.1-0.8c-0.3-1.4-0.4-2.9-0.8-4.2c-0.5-1.9-1.1-3.2-2.4-4.6c-0.4-0.4-0.3-1,0.1-1.3
				C371.8,111.8,372.4,111.8,372.8,112.2L372.8,112.2z"/>
			<path class="st3" d="M366,122.7L366,122.7c0.3,0.6,1.7,3.7,1.8,5.4c0.2,2.3,0,4.7-0.1,7c0,0.5,0.4,1,0.9,1c0.5,0,1-0.4,1-0.9
				c0-2.4,0.3-4.8,0.1-7.2c-0.2-1.8-1.7-5.3-2-6c-0.3-0.6-0.7-0.6-0.8-0.6c-0.5-0.1-1,0.3-1.1,0.8
				C365.9,122.2,365.9,122.5,366,122.7L366,122.7z"/>
			<path class="st3" d="M377,132.1c1.1,4.2,0.6,10.1,0.6,10.9c0,0.5-0.4,1-0.9,1c-0.5,0-1-0.4-1-0.9c0-0.8,0.5-6.5-0.5-10.5
				c-0.1-0.5,0.2-1,0.7-1.2C376.3,131.3,376.8,131.6,377,132.1L377,132.1z"/>
			<path class="st3" d="M367.5,143.5c-1.2,5.4,0.6,10.3,0.8,11.1c0.1,0.5-0.3,1-0.8,1.1c-0.5,0.1-1-0.3-1.1-0.8
				c-0.1-0.9-2-6.1-0.7-11.8c0.1-0.5,0.6-0.8,1.1-0.7C367.2,142.5,367.6,143,367.5,143.5L367.5,143.5z"/>
			<path class="st3" d="M381.4,153.1c-0.6,6.9-3.1,11.2-3.5,12.3c-0.2,0.5-0.7,0.8-1.2,0.6c-0.5-0.2-0.8-0.7-0.6-1.2
				c0.4-1.1,2.8-5.2,3.4-11.9c0-0.5,0.5-0.9,1-0.9C381.1,152.1,381.5,152.6,381.4,153.1L381.4,153.1z"/>
			<path class="st3" d="M372.1,163.3c-0.5,2.9-0.6,3.3-1.3,5.1c-0.4,1-0.8,1.9-1.3,2.9c-0.2,0.5-0.8,0.7-1.3,0.4
				c-0.5-0.2-0.7-0.8-0.4-1.3c0.5-0.9,0.9-1.8,1.2-2.7c0.6-1.7,0.7-2.1,1.2-4.8c0.1-0.5,0.6-0.9,1.1-0.8
				C371.9,162.3,372.2,162.7,372.1,163.3L372.1,163.3z"/>
			<path class="st3" d="M346.6,241.3c0,0,0.1-0.1,0.1-0.1c0.5-0.9-0.4-1.5-0.4-1.5c0,0-0.8-0.3-1.2,0.4c-0.1,0.2-1,1.9-1.3,2.5
				c-0.9,1.8-1.6,3.7-2.3,5.6c-0.2,0.5,0.1,1,0.5,1.2c0.5,0.2,1-0.1,1.2-0.5c0.7-1.8,1.4-3.7,2.3-5.5
				C345.7,243,346.3,241.8,346.6,241.3L346.6,241.3z"/>
			<path class="st3" d="M352.2,224.6c-1.7,3.5-2.5,7.7-3.6,11.4c-0.1,0.5-0.7,0.8-1.2,0.6c-0.5-0.1-0.8-0.7-0.6-1.2
				c1.1-3.8,2-8.1,3.7-11.7c0.2-0.5,0.8-0.7,1.3-0.5C352.3,223.5,352.5,224.1,352.2,224.6L352.2,224.6z"/>
			<path class="st3" d="M354.7,237.5c-0.7,4.9-2.2,8-3,9.7c-0.2,0.5-0.8,0.7-1.3,0.4c-0.5-0.2-0.7-0.8-0.4-1.3
				c0.8-1.6,2.2-4.6,2.8-9.2c0.1-0.5,0.6-0.9,1.1-0.8C354.4,236.5,354.8,237,354.7,237.5L354.7,237.5z"/>
			<path class="st3" d="M355,252.1c-0.6,2.8-0.6,5.8-1,8.7c-0.1,0.5-0.5,0.9-1.1,0.8c-0.5-0.1-0.9-0.5-0.8-1.1c0.4-2.9,0.4-6,1-8.8
				c0.1-0.5,0.6-0.8,1.1-0.7C354.8,251.1,355.1,251.6,355,252.1L355,252.1z"/>
			<path class="st3" d="M344,259.9C344,259.9,344,259.8,344,259.9c-0.1-0.6,0.2-1.1,0.7-1.2c0.1,0,1-0.1,1.2,0.8
				c0.1,0.5,0.5,2.8,0.5,3c0.3,1.8,0.5,3.7,0.8,5.5c0.1,0.5-0.3,1-0.8,1.1c-0.5,0.1-1-0.3-1.1-0.8c-0.3-1.8-0.5-3.7-0.8-5.5
				C344.4,262.6,344,260.1,344,259.9L344,259.9z M344.2,260.2c0.3,0.4,0.7,0.3,0.9,0.3C344.7,260.6,344.4,260.5,344.2,260.2
				L344.2,260.2z M344.2,260.2L344.2,260.2L344.2,260.2L344.2,260.2z"/>
		</g>
	</g>
</g>
</svg>
